<svg width="0" height="0" class="hidden">
  <symbol xmlns="http://www.w3.org/2000/svg" viewBox="0 0 448 512" id="menu">
    <path d="M0 96C0 78.3 14.3 64 32 64H416c17.7 0 32 14.3 32 32s-14.3 32-32 32H32C14.3 128 0 113.7 0 96zM0 256c0-17.7 14.3-32 32-32H416c17.7 0 32 14.3 32 32s-14.3 32-32 32H32c-17.7 0-32-14.3-32-32zM448 416c0 17.7-14.3 32-32 32H32c-17.7 0-32-14.3-32-32s14.3-32 32-32H416c17.7 0 32 14.3 32 32z"></path>
  </symbol>
  <symbol xmlns="http://www.w3.org/2000/svg" viewBox="0 0 384 512" id="c">
    <path d="M329.1 142.9c-62.5-62.5-155.8-62.5-218.3 0s-62.5 163.8 0 226.3s155.8 62.5 218.3 0c12.5-12.5 32.8-12.5 45.3 0s12.5 32.8 0 45.3c-87.5 87.5-221.3 87.5-308.8 0s-87.5-229.3 0-316.8s221.3-87.5 308.8 0c12.5 12.5 12.5 32.8 0 45.3s-32.8 12.5-45.3 0z"></path>
  </symbol>
</svg>